<svg width="24.000000" height="24.000000" viewBox="0 0 24 24" fill="none" xmlns="http://www.w3.org/2000/svg" xmlns:xlink="http://www.w3.org/1999/xlink">
	<desc>
			Created with Pixso.
	</desc>
	<defs>
		<clipPath id="clip23_134">
			<rect id="message" rx="0.000000" width="23.000000" height="23.000000" transform="translate(0.500000 0.500000)" fill="white" fill-opacity="0"/>
		</clipPath>
	</defs>
	<g clip-path="url(#clip23_134)">
		<path id="Vector" d="M9.94 3.25L14.05 3.25C15.89 3.25 17.34 3.25 18.48 3.4C19.66 3.56 20.61 3.89 21.35 4.64C22.1 5.38 22.43 6.33 22.59 7.51C22.75 8.65 22.75 10.1 22.75 11.94L22.75 12.05C22.75 13.89 22.75 15.34 22.59 16.48C22.43 17.66 22.1 18.61 21.35 19.35C20.61 20.1 19.66 20.43 18.48 20.59C17.34 20.75 15.89 20.75 14.05 20.75L9.94 20.75C8.1 20.75 6.65 20.75 5.51 20.59C4.33 20.43 3.38 20.1 2.64 19.35C1.89 18.61 1.56 17.66 1.4 16.48C1.25 15.34 1.25 13.89 1.25 12.05L1.25 11.94C1.25 10.1 1.25 8.65 1.4 7.51C1.56 6.33 1.89 5.38 2.64 4.64C3.38 3.89 4.33 3.56 5.51 3.4C6.65 3.25 8.1 3.25 9.94 3.25ZM5.71 4.88C4.7 5.02 4.12 5.27 3.7 5.7C3.27 6.12 3.02 6.7 2.88 7.71C2.75 8.73 2.75 10.09 2.75 12C2.75 13.9 2.75 15.26 2.88 16.28C3.02 17.29 3.27 17.87 3.7 18.29C4.12 18.72 4.7 18.97 5.71 19.11C6.73 19.24 8.09 19.25 10 19.25L14 19.25C15.9 19.25 17.26 19.24 18.28 19.11C19.29 18.97 19.87 18.72 20.29 18.29C20.72 17.87 20.97 17.29 21.11 16.28C21.24 15.26 21.25 13.9 21.25 12C21.25 10.09 21.24 8.73 21.11 7.71C20.97 6.7 20.72 6.12 20.29 5.7C19.87 5.27 19.29 5.02 18.28 4.88C17.26 4.75 15.9 4.75 14 4.75L10 4.75C8.09 4.75 6.73 4.75 5.71 4.88ZM5.42 7.51C5.68 7.2 6.16 7.15 6.48 7.42L8.63 9.22C9.57 10 10.21 10.53 10.76 10.89C11.29 11.23 11.65 11.34 12 11.34C12.34 11.34 12.7 11.23 13.23 10.89C13.78 10.53 14.42 10 15.36 9.22L17.51 7.42C17.83 7.15 18.31 7.2 18.57 7.51C18.84 7.83 18.79 8.31 18.48 8.57L16.28 10.4C15.39 11.14 14.67 11.74 14.04 12.15C13.38 12.57 12.74 12.84 12 12.84C11.25 12.84 10.61 12.57 9.95 12.15C9.32 11.74 8.6 11.14 7.71 10.4L5.51 8.57C5.2 8.31 5.15 7.83 5.42 7.51Z" fill="#AFB2BF" fill-opacity="1.000000" fill-rule="evenodd"/>
	</g>
</svg>
