<svg width="24.000000" height="24.000000" viewBox="0 0 24 24" fill="none" xmlns="http://www.w3.org/2000/svg" xmlns:xlink="http://www.w3.org/1999/xlink">
	<desc>
			Created with Pixso.
	</desc>
	<defs>
		<clipPath id="clip23_143">
			<rect id="telegram" rx="0.000000" width="23.000000" height="23.000000" transform="translate(0.500000 0.500000)" fill="white" fill-opacity="0"/>
		</clipPath>
	</defs>
	<g clip-path="url(#clip23_143)">
		<path id="Vector" d="M18.14 3.63C16.97 3.83 15.39 4.36 13.18 5.1L8.17 6.77C6.39 7.36 5.1 7.79 4.19 8.18C3.23 8.58 2.9 8.86 2.79 9.05C2.45 9.64 2.45 10.36 2.79 10.94C2.9 11.13 3.23 11.41 4.19 11.82C5.1 12.2 6.39 12.63 8.17 13.23C8.19 13.24 8.22 13.24 8.25 13.25C8.63 13.38 8.94 13.48 9.22 13.63L14.54 8.36C14.84 8.06 15.33 8.07 15.63 8.37C15.93 8.67 15.92 9.16 15.62 9.46L10.32 14.7C10.49 14.99 10.6 15.33 10.74 15.74C10.75 15.77 10.75 15.8 10.76 15.82C11.36 17.6 11.79 18.89 12.17 19.8C12.58 20.76 12.86 21.09 13.05 21.2C13.63 21.54 14.35 21.54 14.94 21.2C15.13 21.09 15.41 20.76 15.81 19.8C16.2 18.89 16.63 17.6 17.22 15.82L18.89 10.81C19.63 8.6 20.16 7.02 20.36 5.85C20.57 4.68 20.41 4.18 20.11 3.88C19.81 3.58 19.31 3.42 18.14 3.63ZM17.87 2.11C19.17 1.88 20.34 1.93 21.2 2.79C22.06 3.65 22.11 4.82 21.88 6.12C21.65 7.41 21.09 9.1 20.37 11.23L18.67 16.35C18.09 18.08 17.64 19.43 17.23 20.4C16.83 21.35 16.38 22.14 15.71 22.53C14.65 23.15 13.34 23.15 12.28 22.53C11.6 22.14 11.16 21.35 10.76 20.4C10.35 19.43 9.9 18.08 9.32 16.35L9.31 16.31C9.1 15.7 9.04 15.54 8.95 15.41C8.86 15.26 8.73 15.13 8.58 15.04C8.45 14.95 8.29 14.89 7.68 14.68L7.64 14.67C5.91 14.09 4.56 13.64 3.59 13.23C2.64 12.83 1.85 12.39 1.46 11.71C0.84 10.65 0.84 9.34 1.46 8.28C1.85 7.61 2.65 7.16 3.59 6.76C4.56 6.35 5.91 5.9 7.64 5.32L12.76 3.62C14.89 2.9 16.58 2.34 17.87 2.11Z" fill="#AFB2BF" fill-opacity="1.000000" fill-rule="evenodd"/>
	</g>
</svg>
