<svg width="24.000000" height="24.000000" viewBox="0 0 24 24" fill="none" xmlns="http://www.w3.org/2000/svg" xmlns:xlink="http://www.w3.org/1999/xlink">
	<desc>
			Created with Pixso.
	</desc>
	<defs>
		<clipPath id="clip23_148">
			<rect id="topic" rx="0.000000" width="23.000000" height="23.000000" transform="translate(0.500000 0.500000)" fill="white" fill-opacity="0"/>
		</clipPath>
	</defs>
	<g clip-path="url(#clip23_148)">
		<path id="Vector" d="M13.53 1.25L10.46 1.25C8.85 1.25 7.6 1.25 6.59 1.34C5.57 1.44 4.73 1.64 3.99 2.09C3.22 2.57 2.57 3.22 2.09 3.99C1.64 4.73 1.44 5.57 1.34 6.59C1.25 7.6 1.25 8.85 1.25 10.46L1.25 11.52C1.25 12.66 1.25 13.56 1.29 14.28C1.34 15.02 1.45 15.63 1.68 16.2C2.27 17.6 3.39 18.72 4.79 19.31C5.6 19.64 6.52 19.71 7.77 19.74C8.21 19.74 8.49 19.75 8.7 19.77C8.9 19.79 8.98 19.83 9.02 19.85C9.07 19.88 9.13 19.93 9.24 20.08C9.37 20.25 9.5 20.48 9.72 20.85L10.26 21.76C11.04 23.07 12.95 23.07 13.73 21.76L14.27 20.85C14.49 20.48 14.62 20.25 14.75 20.08C14.86 19.93 14.92 19.88 14.97 19.85C15.01 19.83 15.09 19.79 15.29 19.77C15.5 19.75 15.78 19.74 16.22 19.74C17.47 19.71 18.39 19.64 19.2 19.31C20.6 18.72 21.72 17.6 22.31 16.2C22.54 15.63 22.65 15.02 22.7 14.28C22.75 13.56 22.75 12.66 22.75 11.52L22.75 10.46C22.75 8.85 22.75 7.6 22.65 6.59C22.55 5.57 22.35 4.73 21.9 3.99C21.42 3.22 20.77 2.57 20 2.09C19.26 1.64 18.42 1.44 17.4 1.34C16.39 1.25 15.14 1.25 13.53 1.25ZM4.77 3.37C5.24 3.09 5.82 2.92 6.73 2.83C7.66 2.75 8.84 2.75 10.5 2.75L13.5 2.75C15.15 2.75 16.33 2.75 17.26 2.83C18.17 2.92 18.75 3.09 19.22 3.37C19.79 3.72 20.27 4.2 20.62 4.77C20.9 5.24 21.07 5.82 21.16 6.73C21.24 7.66 21.25 8.84 21.25 10.5L21.25 11.5C21.25 12.67 21.24 13.51 21.2 14.18C21.15 14.84 21.07 15.27 20.92 15.62C20.49 16.66 19.66 17.49 18.62 17.92C18.11 18.14 17.45 18.21 16.19 18.24L16.16 18.24C15.76 18.24 15.41 18.25 15.12 18.28C14.81 18.32 14.51 18.39 14.22 18.56C13.92 18.73 13.72 18.95 13.53 19.2C13.36 19.43 13.19 19.73 12.99 20.06L12.44 21C12.24 21.33 11.75 21.33 11.55 21L11 20.06C10.8 19.73 10.63 19.43 10.46 19.2C10.27 18.95 10.07 18.73 9.77 18.56C9.48 18.39 9.18 18.32 8.87 18.28C8.58 18.25 8.23 18.24 7.83 18.24L7.8 18.24C6.54 18.21 5.88 18.14 5.37 17.92C4.33 17.49 3.5 16.66 3.07 15.62C2.92 15.27 2.84 14.84 2.79 14.18C2.75 13.51 2.75 12.67 2.75 11.5L2.75 10.5C2.75 8.84 2.75 7.66 2.83 6.73C2.92 5.82 3.09 5.24 3.37 4.77C3.72 4.2 4.2 3.72 4.77 3.37ZM8 12C8.55 12 9 11.55 9 11C9 10.44 8.55 10 8 10C7.44 10 7 10.44 7 11C7 11.55 7.44 12 8 12ZM13 11C13 11.55 12.55 12 12 12C11.44 12 11 11.55 11 11C11 10.44 11.44 10 12 10C12.55 10 13 10.44 13 11ZM16 12C16.55 12 17 11.55 17 11C17 10.44 16.55 10 16 10C15.44 10 15 10.44 15 11C15 11.55 15.44 12 16 12Z" fill="#AFB2BF" fill-opacity="1.000000" fill-rule="evenodd"/>
	</g>
</svg>
